<svg width="381" height="381" viewBox="0 0 381 381" fill="none" xmlns="http://www.w3.org/2000/svg">
<path fill-rule="evenodd" clip-rule="evenodd" d="M266.5 36C294.39 36 317 58.6096 317 86.5V99.7617C341.84 117.749 358 146.987 358 180V246C358 300.676 313.676 345 259 345H121C66.3238 345 22 300.676 22 246V180C22 146.109 39.0306 116.196 65 98.3506V86.5C65 58.6096 87.6096 36 115.5 36C141.532 36 162.962 55.6968 165.703 81H216.297C219.038 55.6968 240.468 36 266.5 36ZM122 203C103.222 203 88 218.222 88 237C88 255.778 103.222 271 122 271C140.778 271 156 255.778 156 237C156 218.222 140.778 203 122 203ZM258 203C239.222 203 224 218.222 224 237C224 255.778 239.222 271 258 271C276.778 271 292 255.778 292 237C292 218.222 276.778 203 258 203ZM190 141C171.222 141 156 156.222 156 175C156 193.778 171.222 209 190 209C208.778 209 224 193.778 224 175C224 156.222 208.778 141 190 141Z" fill="#333333"/>
</svg>
