<svg width="381" height="381" viewBox="0 0 381 381" fill="none" xmlns="http://www.w3.org/2000/svg">
<path fill-rule="evenodd" clip-rule="evenodd" d="M266.5 36C294.39 36 317 58.6096 317 86.5V99.7617C341.84 117.749 358 146.987 358 180V246C358 300.676 313.676 345 259 345H121C66.3238 345 22 300.676 22 246V180C22 146.109 39.0306 116.196 65 98.3506V86.5C65 58.6096 87.6096 36 115.5 36C141.532 36 162.962 55.6968 165.703 81H216.297C219.038 55.6968 240.468 36 266.5 36ZM122 221C103.222 221 88 236.222 88 255C88 273.778 103.222 289 122 289C140.778 289 156 273.778 156 255C156 236.222 140.778 221 122 221ZM258 221C239.222 221 224 236.222 224 255C224 273.778 239.222 289 258 289C276.778 289 292 273.778 292 255C292 236.222 276.778 221 258 221ZM190 141C171.222 141 156 156.222 156 175C156 193.778 171.222 209 190 209C208.778 209 224 193.778 224 175C224 156.222 208.778 141 190 141Z" fill="#333333"/>
</svg>
